<?xml version="1.0" standalone="no"?>
<!DOCTYPE svg PUBLIC "-//W3C//DTD SVG 20010904//EN"
 "http://www.w3.org/TR/2001/REC-SVG-20010904/DTD/svg10.dtd">
<svg version="1.0" xmlns="http://www.w3.org/2000/svg"
 width="1039.000000pt" height="1039.000000pt" viewBox="0 0 1039.000000 1039.000000"
 preserveAspectRatio="xMidYMid meet">
<metadata>
Created by potrace 1.16, written by Peter Selinger 2001-2019
</metadata>
<g transform="translate(0.000000,1039.000000) scale(0.100000,-0.100000)"
fill="#000000" stroke="none">
<path d="M4845 10383 c-396 -32 -749 -93 -1075 -187 -1879 -540 -3291 -2072
-3674 -3986 -69 -342 -96 -631 -96 -1021 0 -387 27 -675 96 -1019 428 -2146
2152 -3794 4314 -4124 284 -43 383 -48 870 -43 396 4 475 7 610 26 1151 161
2180 671 2990 1481 731 731 1222 1649 1424 2660 76 377 81 445 81 1020 0 482
-1 526 -23 680 -160 1157 -670 2189 -1481 3001 -883 882 -2033 1410 -3285
1509 -116 9 -651 11 -751 3z m610 -408 c381 -13 844 -99 1240 -230 916 -303
1705 -863 2306 -1635 385 -495 693 -1128 847 -1745 102 -406 142 -739 142
-1175 0 -349 -22 -593 -81 -900 -222 -1155 -848 -2168 -1794 -2905 -120 -94
-399 -279 -550 -366 -515 -295 -1150 -507 -1745 -583 -380 -49 -825 -51 -1200
-5 -954 114 -1857 521 -2590 1165 -126 110 -388 376 -486 494 -186 222 -377
494 -515 735 -295 515 -508 1151 -583 1745 -42 328 -47 853 -11 1155 113 960
484 1819 1109 2565 98 118 360 384 486 494 310 273 666 514 1022 692 507 254
1044 413 1618 480 150 17 470 32 575 27 33 -1 128 -5 210 -8z"/>
<path d="M7660 7862 c-1763 -787 -2970 -1455 -3343 -1852 -300 -318 -753
-1093 -1284 -2192 -276 -573 -671 -1443 -660 -1454 6 -7 195 74 562 241 1598
726 2685 1325 3085 1702 198 186 453 561 764 1121 323 584 732 1421 1111 2273
132 297 141 319 128 319 -4 0 -168 -71 -363 -158z m-2293 -1898 c190 -40 375
-162 482 -318 49 -71 107 -202 125 -283 20 -92 21 -253 0 -346 -20 -94 -100
-257 -162 -331 -74 -89 -156 -152 -267 -206 -121 -58 -218 -81 -345 -81 -127
0 -224 23 -345 81 -172 84 -281 193 -365 365 -59 123 -80 212 -80 347 0 215
80 408 230 558 192 192 458 270 727 214z"/>
</g>
</svg>
