<?xml version="1.0" standalone="no"?>
<!DOCTYPE svg PUBLIC "-//W3C//DTD SVG 20010904//EN"
 "http://www.w3.org/TR/2001/REC-SVG-20010904/DTD/svg10.dtd">
<svg version="1.0" xmlns="http://www.w3.org/2000/svg"
 width="1096.000000pt" height="1096.000000pt" viewBox="0 0 1096.000000 1096.000000"
 preserveAspectRatio="xMidYMid meet">
<metadata>
Created by potrace 1.16, written by Peter Selinger 2001-2019
</metadata>
<g transform="translate(0.000000,1096.000000) scale(0.100000,-0.100000)"
fill="#000000" stroke="none">
<path d="M10211 10940 c-29 -4 -58 -13 -63 -18 -6 -6 -13 -30 -15 -55 l-5 -45
-114 -4 c-69 -2 -118 -8 -125 -15 -6 -6 -14 -35 -17 -62 l-5 -51 -111 0 c-84
0 -123 -5 -160 -19 -53 -20 -86 -51 -86 -81 0 -15 -12 -19 -72 -24 -187 -17
-198 -21 -198 -85 l0 -38 -111 -7 c-127 -7 -149 -15 -149 -54 0 -69 -1 -69
-128 -74 -65 -2 -126 -9 -137 -15 -11 -6 -33 -16 -48 -22 -19 -8 -34 -25 -44
-51 l-16 -40 -61 -1 c-85 -1 -174 -13 -186 -25 -6 -6 -14 -30 -18 -55 l-7 -44
-114 -5 c-127 -6 -141 -14 -141 -80 l0 -37 -112 -7 c-62 -4 -133 -14 -158 -23
-51 -18 -90 -54 -90 -84 0 -16 -7 -19 -47 -19 -87 -1 -197 -19 -209 -35 -6 -9
-14 -33 -18 -54 l-6 -38 -110 -5 c-65 -3 -116 -11 -125 -18 -8 -7 -17 -34 -21
-60 l-6 -48 -113 -4 c-124 -3 -110 3 -200 -88 -39 -39 -42 -40 -110 -41 -108
-1 -176 -13 -191 -34 -8 -10 -14 -34 -14 -52 0 -30 -3 -33 -32 -34 -101 -2
-211 -17 -219 -30 -5 -8 -9 -32 -9 -55 l0 -41 -115 -5 c-114 -5 -145 -15 -145
-45 0 -7 -16 -29 -35 -48 -32 -33 -38 -35 -102 -35 -92 0 -194 -18 -215 -37
-10 -9 -18 -28 -18 -42 0 -14 -4 -31 -8 -37 -4 -7 -52 -13 -120 -16 -62 -2
-117 -9 -123 -15 -5 -5 -12 -33 -16 -61 l-6 -52 -111 0 c-61 0 -116 -4 -122
-8 -6 -4 -14 -17 -18 -29 -4 -13 -20 -35 -35 -51 -26 -26 -38 -29 -157 -40
-148 -15 -171 -25 -180 -80 l-6 -38 -120 -10 c-133 -11 -138 -14 -138 -81 l0
-43 -97 -1 c-128 -2 -157 -8 -161 -36 -2 -12 -19 -38 -39 -58 -34 -34 -38 -35
-106 -35 -95 0 -186 -16 -208 -36 -9 -8 -20 -33 -24 -54 l-6 -38 -115 -4 c-64
-2 -119 -9 -125 -15 -6 -6 -14 -31 -16 -56 l-5 -45 -115 -7 c-113 -7 -143 -18
-143 -49 0 -7 -15 -26 -33 -44 -30 -29 -39 -32 -97 -32 -36 -1 -96 -7 -134
-14 -77 -15 -106 -38 -106 -86 l0 -27 -110 -6 c-126 -7 -150 -16 -150 -55 0
-70 -3 -72 -109 -73 -114 -1 -145 -8 -149 -34 -2 -11 -21 -36 -42 -56 l-38
-36 -114 -6 c-140 -6 -165 -17 -180 -73 l-12 -43 -85 -6 c-160 -11 -171 -17
-171 -88 l0 -34 -116 -6 c-114 -5 -144 -15 -144 -44 0 -7 -16 -29 -35 -48 -32
-33 -39 -35 -98 -35 -56 0 -152 -13 -198 -26 -19 -5 -39 -46 -39 -78 0 -22 -3
-23 -116 -29 -63 -3 -121 -10 -129 -17 -7 -6 -16 -33 -20 -61 l-7 -49 -101 0
c-123 0 -144 -5 -151 -35 -3 -13 -19 -36 -35 -52 -27 -27 -37 -30 -149 -41
-157 -16 -169 -20 -184 -75 l-11 -44 -86 -7 c-47 -3 -99 -10 -116 -14 -54 -15
-59 -39 -63 -323 -4 -270 -1 -299 39 -299 25 0 84 -58 92 -92 8 -31 29 -38
120 -38 65 0 69 -1 100 -36 18 -20 34 -46 37 -58 7 -24 38 -33 126 -35 54 -1
63 -4 90 -33 17 -18 35 -45 41 -60 11 -25 17 -27 100 -33 80 -7 91 -10 120
-38 18 -17 33 -38 33 -48 0 -28 21 -36 108 -42 80 -5 84 -7 117 -42 19 -20 35
-43 35 -50 0 -24 35 -35 110 -35 67 0 73 -2 104 -33 18 -18 36 -45 39 -59 8
-29 36 -38 129 -38 55 0 61 -2 91 -36 18 -20 34 -46 37 -58 7 -24 38 -33 126
-35 54 -1 63 -4 90 -34 17 -17 35 -44 41 -59 11 -25 17 -27 100 -33 80 -7 91
-10 121 -38 17 -17 32 -38 32 -48 0 -28 21 -36 108 -42 80 -5 84 -7 117 -42
19 -20 35 -43 35 -50 0 -24 35 -35 110 -35 67 0 73 -2 104 -33 18 -18 36 -45
39 -59 8 -29 36 -38 129 -38 55 0 61 -2 91 -36 18 -20 34 -46 37 -58 7 -24 38
-33 126 -35 54 -1 63 -4 90 -34 17 -17 35 -44 41 -58 11 -25 17 -27 100 -34
80 -6 91 -10 120 -38 18 -17 33 -39 33 -49 0 -25 25 -35 113 -41 74 -5 80 -8
113 -42 19 -20 34 -43 34 -50 0 -23 35 -35 102 -35 60 0 64 -2 80 -30 9 -17
29 -35 43 -42 23 -10 25 -17 25 -72 0 -83 7 -103 38 -111 14 -3 40 -23 59 -43
31 -34 33 -40 33 -112 0 -77 9 -100 40 -100 9 0 30 -15 47 -32 29 -30 32 -41
39 -121 6 -77 10 -90 30 -104 13 -8 26 -23 29 -34 4 -10 19 -26 34 -35 26 -15
29 -23 35 -91 l6 -75 60 -59 c55 -54 60 -62 60 -103 0 -65 11 -108 29 -113 9
-2 24 -17 33 -34 9 -16 29 -34 43 -41 23 -10 25 -17 25 -72 0 -76 8 -104 29
-111 9 -3 24 -18 33 -35 9 -16 29 -35 43 -42 23 -10 25 -16 25 -82 0 -61 3
-73 25 -96 14 -14 35 -37 48 -51 13 -14 28 -28 35 -30 7 -2 15 -36 18 -82 6
-67 10 -81 30 -94 13 -8 26 -23 29 -34 4 -10 19 -26 34 -35 26 -15 29 -23 34
-90 l5 -74 61 -60 c56 -55 61 -63 61 -104 0 -67 11 -108 30 -113 10 -3 23 -16
29 -29 6 -14 24 -33 41 -42 28 -16 30 -21 30 -77 0 -76 8 -103 30 -110 9 -3
22 -17 28 -31 7 -14 25 -33 42 -42 29 -16 30 -20 30 -89 0 -47 5 -76 14 -85 7
-8 21 -29 31 -47 9 -18 29 -38 45 -44 30 -11 40 -41 40 -119 0 -29 6 -41 25
-54 13 -9 27 -24 30 -35 4 -10 19 -26 34 -35 26 -15 29 -23 34 -90 l5 -74 61
-60 c56 -55 61 -63 61 -104 0 -76 10 -106 38 -113 34 -8 92 -67 92 -92 0 -39
29 -43 299 -39 284 4 308 9 323 63 4 17 11 69 15 118 6 87 6 87 33 87 51 0 71
28 86 120 7 47 14 108 14 135 0 41 6 56 30 83 16 17 36 32 44 32 31 0 46 30
46 93 0 34 3 85 6 113 l7 52 48 6 c45 6 49 9 59 44 5 20 10 76 10 124 l0 88
40 6 c21 4 46 14 54 23 19 21 36 118 36 206 0 68 2 74 33 107 18 19 44 38 58
41 22 6 27 14 33 53 3 26 6 82 6 125 l0 79 45 0 c62 0 72 19 80 153 l7 107 30
0 c33 0 78 39 78 67 1 10 5 62 9 115 9 92 11 99 43 131 18 19 38 41 45 50 7 8
18 17 25 19 9 3 14 37 16 125 l4 121 48 6 c26 4 53 13 60 21 7 8 14 61 17 122
4 62 11 111 17 115 6 4 23 8 37 8 14 0 33 8 42 18 18 20 36 126 37 213 0 49 3
57 24 67 14 6 33 24 43 39 10 15 26 35 36 43 14 12 19 37 24 133 l6 117 37 0
c65 0 73 13 81 141 4 63 8 115 8 115 1 1 19 4 41 8 60 9 71 34 77 171 6 115 6
116 34 131 16 8 34 24 40 37 6 12 21 30 33 39 19 15 21 29 24 132 l4 116 49 6
c27 4 53 12 59 19 5 6 13 64 16 128 l7 117 32 0 c63 0 75 21 87 156 12 116 13
122 40 137 46 26 88 104 88 163 0 28 3 78 6 111 l7 61 44 5 c25 2 50 10 56 16
7 7 13 57 15 125 l4 114 40 5 c23 3 48 12 56 21 18 18 30 92 31 188 1 65 2 66
36 87 19 11 41 33 47 48 7 15 19 33 27 39 10 8 16 45 20 130 l6 119 48 6 c27
3 52 11 57 19 4 7 11 64 15 127 l7 113 33 0 c63 0 76 22 82 140 6 108 14 140
37 140 17 0 49 37 74 88 19 36 22 60 22 151 l0 108 52 6 c28 4 56 11 61 16 5
5 12 61 15 124 l5 114 46 9 c59 12 68 30 77 161 l7 103 35 17 c20 10 39 25 43
33 35 69 41 94 46 203 l6 117 41 0 c66 0 69 6 77 132 4 62 8 116 8 121 1 4 16
7 34 7 18 0 42 6 52 14 21 15 33 83 34 189 1 53 4 67 16 67 74 0 115 92 115
256 l0 102 49 7 c28 4 55 13 61 20 6 8 14 63 17 124 l6 110 43 7 c24 3 49 12
55 20 6 8 16 66 22 129 10 112 11 116 36 122 14 3 34 12 43 21 22 19 48 107
48 164 0 23 3 73 7 111 l6 67 37 0 c67 0 75 14 78 143 l4 115 46 5 c26 3 51
12 58 22 19 25 26 174 22 452 -2 190 -6 255 -16 265 -10 10 -82 13 -310 15
-163 0 -321 -2 -351 -7z m-1474 -1542 c-10 -8 -17 -31 -19 -63 l-3 -50 -50 -3
c-60 -3 -75 -19 -75 -78 l0 -43 -56 -7 c-61 -7 -74 -23 -74 -88 0 -32 -1 -33
-52 -39 -28 -4 -55 -10 -60 -15 -5 -5 -11 -32 -15 -60 -6 -51 -7 -52 -39 -52
-65 0 -81 -13 -88 -74 l-7 -56 -43 0 c-59 0 -75 -15 -78 -75 l-3 -50 -50 -3
c-60 -3 -75 -19 -75 -78 l0 -43 -56 -7 c-61 -7 -74 -23 -74 -88 0 -32 -1 -33
-52 -39 -28 -4 -55 -10 -60 -15 -5 -5 -11 -32 -15 -60 -6 -51 -7 -52 -39 -52
-65 0 -81 -13 -88 -74 l-7 -56 -43 0 c-59 0 -75 -15 -78 -75 l-3 -50 -50 -3
c-60 -3 -75 -19 -75 -78 l0 -43 -56 -7 c-61 -7 -74 -23 -74 -88 0 -32 -1 -33
-52 -39 -28 -4 -55 -10 -60 -15 -5 -5 -11 -32 -15 -60 -6 -51 -7 -52 -39 -52
-65 0 -81 -13 -88 -74 l-7 -56 -43 0 c-59 0 -75 -15 -78 -75 l-3 -50 -50 -3
c-60 -3 -75 -19 -75 -78 l0 -43 -56 -7 c-61 -7 -74 -23 -74 -88 0 -32 -1 -33
-52 -39 -28 -4 -55 -10 -60 -15 -5 -5 -11 -32 -15 -60 -6 -51 -7 -52 -39 -52
-65 0 -81 -13 -88 -74 l-7 -56 -43 0 c-59 0 -75 -15 -78 -75 l-3 -50 -50 -3
c-60 -3 -75 -19 -75 -78 l0 -43 -56 -7 c-61 -7 -74 -23 -74 -88 0 -32 -1 -33
-52 -39 -28 -4 -55 -10 -60 -15 -5 -5 -11 -32 -15 -60 -6 -51 -7 -52 -39 -52
-65 0 -81 -13 -88 -74 l-7 -56 -43 0 c-59 0 -75 -15 -78 -75 l-3 -50 -50 -3
c-60 -3 -75 -19 -75 -78 l0 -43 -56 -7 c-61 -7 -74 -23 -74 -88 0 -32 -1 -33
-52 -39 -28 -4 -55 -10 -60 -15 -5 -5 -11 -32 -15 -60 -6 -51 -7 -52 -39 -52
-65 0 -81 -13 -88 -74 l-7 -56 -43 0 c-59 0 -75 -15 -78 -75 l-3 -50 -50 -3
c-60 -3 -75 -19 -75 -78 l0 -43 -56 -7 c-61 -7 -74 -23 -74 -88 0 -32 -1 -33
-52 -39 -28 -4 -55 -10 -60 -15 -5 -5 -11 -32 -15 -60 -6 -51 -7 -52 -39 -52
-65 0 -81 -13 -88 -74 l-7 -56 -43 0 c-59 0 -75 -15 -78 -75 l-3 -50 -60 -3
c-33 -2 -93 -1 -132 3 l-73 7 0 33 c0 62 -21 75 -145 83 l-110 7 -3 41 c-5 63
-21 72 -144 80 l-106 7 -6 49 c-8 60 -19 65 -157 74 l-99 7 0 37 c0 64 -14 72
-138 84 l-111 10 -7 43 c-3 23 -12 47 -19 53 -12 10 -153 29 -217 30 -14 0
-18 8 -18 34 0 63 -21 76 -145 84 l-110 7 -3 41 c-5 63 -21 72 -144 80 l-106
7 -6 49 c-8 60 -19 65 -157 74 l-99 7 0 37 c0 64 -14 72 -139 84 l-111 10 -6
38 c-10 61 -20 67 -124 78 -52 5 -103 10 -112 10 -13 0 -18 8 -18 28 0 49 -22
76 -65 83 l-40 5 40 7 c22 4 65 15 95 25 48 15 57 22 74 58 l19 41 101 7 c131
9 150 18 156 76 l5 45 115 5 c63 3 120 9 126 13 7 4 15 32 19 62 l6 55 104 0
c168 0 255 33 255 96 0 27 14 30 150 38 96 5 120 21 120 81 l0 32 111 7 c61 4
116 9 124 12 15 6 25 36 25 80 l0 32 118 4 c80 3 134 11 172 24 50 17 56 23
70 62 l14 42 61 1 c94 1 176 14 185 29 4 7 11 33 15 57 l6 43 99 0 c133 0 146
6 155 68 l6 49 67 7 c37 3 90 6 117 6 28 0 56 5 62 11 5 5 25 18 44 27 19 9
41 31 49 48 14 30 15 30 134 42 76 7 124 16 133 25 8 8 17 32 20 54 l5 40 117
6 c132 7 141 13 141 83 l0 42 121 4 c92 2 123 7 132 18 7 8 26 22 42 30 17 8
37 29 45 46 l15 31 114 6 c133 7 155 18 165 75 7 46 23 52 137 52 100 0 117 9
125 68 l6 49 113 6 c106 6 116 8 160 38 26 18 55 45 64 61 14 25 22 28 66 28
28 0 82 5 120 10 80 12 105 32 105 85 l0 32 117 6 c134 6 143 12 143 84 l0 43
115 0 c125 0 106 -7 199 76 13 11 25 26 27 32 3 8 47 16 124 23 69 6 129 16
142 24 13 9 24 29 28 54 l6 39 109 7 c60 4 116 13 126 19 9 7 18 32 21 58 l5
46 115 4 c100 3 117 6 131 23 10 11 30 28 45 38 15 10 33 29 39 43 10 22 17
24 72 24 34 0 90 5 126 10 74 12 100 34 100 85 l0 32 114 5 c127 5 146 13 146
62 0 52 8 56 121 63 57 3 111 10 121 14 10 5 19 28 23 59 l7 50 81 0 c67 0 78
-2 64 -12z m622 -555 c-4 -32 -8 -88 -8 -124 -1 -73 -6 -79 -66 -79 -19 0 -37
-6 -42 -12 -4 -7 -10 -65 -13 -128 l-5 -115 -47 -5 c-26 -3 -50 -9 -54 -13
-12 -12 -23 -91 -24 -168 l0 -76 -40 -7 c-25 -4 -45 -14 -54 -29 -22 -33 -36
-129 -36 -237 l0 -97 -52 -6 c-28 -4 -56 -11 -60 -15 -5 -5 -12 -61 -15 -125
l-6 -115 -51 -8 c-60 -11 -62 -15 -72 -166 l-6 -98 -28 0 c-63 0 -90 -64 -90
-215 0 -67 -3 -76 -32 -113 -21 -26 -42 -41 -56 -41 -33 -1 -42 -36 -42 -157
l0 -104 -42 0 c-24 0 -49 -4 -57 -9 -17 -11 -29 -87 -30 -183 -1 -65 -2 -68
-26 -68 -33 0 -74 -20 -79 -39 -11 -34 -26 -148 -26 -193 0 -44 -4 -51 -59
-107 l-59 -60 -7 -115 -7 -115 -43 -6 c-68 -11 -69 -12 -75 -142 l-5 -118 -36
-3 c-20 -2 -44 -11 -53 -21 -20 -22 -36 -112 -36 -202 0 -61 -2 -67 -25 -77
-14 -7 -34 -26 -43 -42 -9 -17 -24 -32 -33 -35 -22 -7 -29 -48 -29 -161 l0
-94 -32 0 c-46 0 -76 -10 -82 -25 -3 -8 -8 -63 -12 -123 l-7 -110 -43 -7 c-27
-4 -48 -13 -54 -24 -5 -10 -15 -71 -21 -135 -12 -113 -13 -118 -40 -132 -16
-8 -36 -29 -45 -46 -9 -18 -23 -38 -30 -46 -10 -10 -14 -44 -14 -127 l0 -114
-50 -7 c-27 -4 -55 -13 -62 -21 -7 -9 -14 -61 -16 -129 l-5 -114 -36 0 c-21 0
-45 -6 -55 -13 -19 -14 -35 -105 -36 -198 0 -53 -1 -56 -35 -72 -23 -11 -41
-30 -53 -54 -9 -21 -21 -41 -26 -44 -5 -4 -11 -61 -14 -127 l-5 -120 -45 -5
c-26 -3 -51 -12 -58 -21 -6 -9 -15 -65 -18 -125 l-8 -109 -40 -5 c-22 -3 -45
-10 -50 -15 -16 -16 -27 -88 -28 -172 l0 -76 -42 -19 c-63 -30 -87 -94 -88
-236 0 -117 -1 -119 -65 -119 -50 0 -58 -18 -63 -146 l-5 -114 -36 0 c-66 0
-74 -13 -85 -149 -9 -108 -12 -121 -29 -121 -26 0 -77 -54 -77 -82 0 -13 -4
-28 -9 -34 -6 -5 -11 -31 -13 -59 l-3 -50 -10 45 c-11 48 -38 70 -86 70 -25 0
-26 1 -36 110 -6 61 -17 117 -23 125 -7 8 -27 15 -44 15 -17 0 -36 4 -42 8 -5
4 -15 56 -20 116 -12 123 -20 136 -86 136 l-38 0 -1 58 c-1 94 -14 173 -30
182 -8 5 -32 12 -55 16 l-41 6 -7 106 c-7 123 -18 142 -77 142 -44 0 -44 1
-53 144 -5 90 -15 105 -73 113 l-40 5 -11 109 c-5 61 -16 116 -22 124 -7 8
-27 15 -44 15 -17 0 -36 4 -42 8 -5 4 -15 56 -20 116 -12 123 -20 136 -86 136
l-38 0 -1 58 c-1 94 -14 173 -30 182 -8 5 -32 12 -55 16 l-41 6 -7 106 c-7
123 -18 142 -77 142 -44 0 -44 1 -53 144 -5 90 -15 105 -74 113 l-40 5 -7 83
c-3 45 -4 103 0 128 7 47 19 57 76 57 37 0 49 18 49 71 l0 47 55 7 c63 7 75
21 75 83 l0 39 51 5 c27 3 55 10 61 16 6 6 13 34 16 61 l5 51 41 0 c59 0 75
16 83 78 l6 52 47 0 c55 0 65 9 73 68 3 24 8 46 10 49 3 2 25 7 49 10 59 8 68
18 68 73 l0 47 53 6 c61 8 77 24 77 83 l0 41 51 5 c27 3 55 10 61 16 6 6 13
34 16 61 l5 51 41 0 c59 0 75 16 83 78 l6 52 47 0 c55 0 65 9 73 68 3 24 8 46
10 49 3 2 25 7 49 10 59 8 68 18 68 73 l0 47 53 6 c61 8 77 24 77 83 l0 41 51
5 c27 3 55 10 61 16 6 6 13 34 16 61 l5 51 39 0 c62 0 76 12 83 75 l7 55 47 0
c57 0 71 12 71 61 0 21 7 45 16 53 8 9 32 16 53 16 49 0 61 14 61 71 l0 47 55
7 c63 7 75 21 75 83 l0 39 51 5 c27 3 55 10 61 16 6 6 13 34 16 61 l5 51 41 0
c59 0 75 16 83 78 l6 52 47 0 c55 0 65 9 73 68 3 24 8 46 10 49 3 2 25 7 49
10 59 8 68 18 68 73 l0 47 53 6 c61 8 77 24 77 83 l0 41 51 5 c27 3 55 10 61
16 6 6 13 34 16 61 l5 51 41 0 c59 0 75 16 83 78 l6 52 47 0 c55 0 65 9 73 68
3 24 8 46 10 49 3 2 25 7 49 10 59 8 68 18 68 73 l0 47 53 6 c61 8 77 24 77
83 l0 41 51 5 c27 3 55 10 61 16 6 6 13 34 16 61 l5 51 41 0 c59 0 75 16 83
78 l6 52 47 0 c55 0 65 9 73 68 3 24 8 46 10 49 3 2 25 7 49 10 59 8 68 18 68
73 l0 47 53 6 c61 8 77 24 77 83 l0 41 51 5 c27 3 55 10 61 16 6 6 13 34 16
61 l5 51 41 0 c59 0 75 16 83 78 l6 52 47 0 c55 0 65 9 73 68 3 24 8 46 10 49
3 2 25 7 49 10 59 8 68 18 68 74 0 27 4 49 8 49 4 0 5 -26 1 -57z"/>
</g>
</svg>
